PathFileType	4	(X/Y/Z)	s07c0402.trc
DataRate	CameraRate	NumFrames	NumMarkers	Units	OrigDataRate	OrigDataStartFrame	OrigNumFrames
200	200	4	48	mm	200	750	2000
Frame#	Time	racr			lacr			c7			jug			rlel			rdr			llel			ldr			s2			lic			ric			lasi			rasi			rpsi			lpsi			rgt			lgt			rth1			rth2			rth3			rth4			rlfc			rmfc			rsh1			rsh2			rsh3			rsh4			rlmal			rcal			rtoe			rmt5			lth1			lth2			lth4			lth3			llfc			lmfc			lsh1			lsh2			lsh3			lsh4			llmal			lcal			ltoe			lmt5			SBIKE			LBIKE			RBIKE			
		X1	Y1	Z1	X2	Y2	Z2	X3	Y3	Z3	X4	Y4	Z4	X5	Y5	Z5	X6	Y6	Z6	X7	Y7	Z7	X8	Y8	Z8	X9	Y9	Z9	X10	Y10	Z10	X11	Y11	Z11	X12	Y12	Z12	X13	Y13	Z13	X14	Y14	Z14	X15	Y15	Z15	X16	Y16	Z16	X17	Y17	Z17	X18	Y18	Z18	X19	Y19	Z19	X20	Y20	Z20	X21	Y21	Z21	X22	Y22	Z22	X23	Y23	Z23	X24	Y24	Z24	X25	Y25	Z25	X26	Y26	Z26	X27	Y27	Z27	X28	Y28	Z28	X29	Y29	Z29	X30	Y30	Z30	X31	Y31	Z31	X32	Y32	Z32	X33	Y33	Z33	X34	Y34	Z34	X35	Y35	Z35	X36	Y36	Z36	X37	Y37	Z37	X38	Y38	Z38	X39	Y39	Z39	X40	Y40	Z40	X41	Y41	Z41	X42	Y42	Z42	X43	Y43	Z43	X44	Y44	Z44	X45	Y45	Z45	X46	Y46	Z46	X47	Y47	Z47	X48	Y48	Z48	
750	3.7500	785.899611	1423.488410	-126.052130	769.787135	1438.444219	-449.107502	769.688773	1477.949154	-287.982672	724.730908	1332.262407	-297.188853	551.621138	1176.372620	19.189927	696.072785	940.880793	-63.599368	538.352746	1173.679258	-534.253812	694.641124	940.838930	-450.612062	185.924508	1266.382427	-255.603264	341.534039	1315.151778	-392.526612	378.606575	1260.798215	-119.207817	361.663711	1231.457571	-385.863341	378.861497	1204.162691	-136.067829	224.689456	1295.980201	-201.645412	224.993851	1314.772191	-307.905603	281.012291	1139.992054	-82.095667	276.706156	1170.374016	-445.491195	313.864938	988.392130	-81.871237	337.407957	903.840188	-87.809213	320.691717	820.160734	-82.432733	370.945627	905.493877	-103.320444	318.403733	680.610715	-105.109240	298.037875	665.555821	-205.427637	227.389269	571.628296	-72.252907	196.212418	489.288392	-85.788057	130.719840	432.079405	-79.606862	210.155943	481.285824	-123.434463	46.468175	320.925057	-78.013290	-27.495403	324.732032	-106.408479	193.492164	136.018874	-126.805054	112.273703	154.281893	-54.827409	360.700217	1082.397096	-448.547554	443.139419	1050.707760	-450.898814	464.867046	1079.354100	-442.046104	499.531429	981.617380	-447.809894	623.110399	854.019404	-414.504632	613.012621	841.991266	-311.582040	508.038285	761.268096	-424.354886	451.148540	699.420887	-403.335981	366.659317	668.435133	-407.097235	444.442899	685.154826	-359.049729	248.241207	601.205981	-404.377527	165.541090	605.470531	-369.259687	394.849071	429.885812	-363.958427	314.482772	452.490910	-429.470080	-263.352654	969.818176	-238.238506	-83.403517	79.365377	-437.595686	-83.437915	79.343535	-39.952654	
751	3.7550	786.633501	1422.496582	-128.099108	770.084749	1436.901977	-450.874182	770.755828	1476.640718	-289.623514	724.400620	1331.389486	-299.027732	552.064336	1176.575303	17.988753	696.251918	940.581220	-63.795564	537.007913	1173.166662	-534.268353	694.490622	941.189050	-450.561080	185.849059	1269.540631	-255.542273	340.634168	1318.080406	-392.875872	378.518672	1264.346872	-119.505072	360.774258	1234.512276	-386.202628	379.132270	1207.717112	-136.861694	224.947233	1299.316690	-201.870510	224.869532	1318.052123	-308.390339	282.414406	1142.726823	-82.190328	275.442083	1172.760290	-445.133611	318.534365	991.038591	-82.787063	344.051063	907.111537	-89.418314	329.487172	823.049860	-83.696739	377.104513	909.717016	-105.476856	328.114464	683.338137	-105.626431	307.674541	668.300717	-205.900357	234.439801	576.806496	-72.699752	202.690845	495.329056	-85.119716	134.908930	439.234090	-79.370243	215.700694	487.038193	-123.423389	48.361055	330.262219	-77.501357	-25.066732	337.694598	-106.711955	184.395449	136.471149	-126.733033	104.418753	159.630393	-54.842177	358.900986	1083.380069	-448.029789	441.049503	1050.837839	-450.258050	463.135013	1079.309816	-441.702285	496.715250	981.295793	-446.883415	619.651182	853.218996	-413.091018	609.381567	840.704536	-310.368816	505.708058	756.579744	-418.727433	455.357041	694.746961	-399.429794	366.125949	662.889655	-406.823777	444.513167	681.499061	-358.611480	249.168818	592.482554	-403.930679	165.975709	593.472753	-369.238910	403.167569	428.321607	-364.247374	321.684461	447.185017	-430.104926	-263.287308	969.896409	-238.343421	-83.401837	79.395825	-437.589702	-83.402131	79.398833	-39.962618	
752	3.7600	787.335107	1421.106876	-130.187616	770.659878	1434.969249	-452.176350	771.700995	1475.088469	-291.134110	722.880397	1330.384882	-299.487130	552.385650	1176.667128	16.870903	696.331820	940.353863	-63.941744	535.753968	1172.720649	-534.435614	694.277568	941.447275	-450.526014	185.648324	1272.364518	-255.307398	339.612036	1320.725246	-393.381004	378.381940	1267.660219	-119.810305	359.641604	1237.306908	-386.852706	379.390991	1211.162962	-137.624213	225.169464	1302.239691	-201.953080	224.456783	1320.866240	-308.411688	283.841323	1145.449987	-82.310178	274.073243	1174.936005	-444.762674	323.529393	993.753296	-83.531757	351.039785	910.492099	-91.049690	338.488661	826.270487	-85.044158	383.570814	914.291823	-107.507075	338.120644	686.521765	-106.085805	317.923531	671.102375	-206.476728	242.281946	582.093182	-73.363151	208.826100	501.105084	-85.275409	139.985948	446.583554	-79.326887	221.954268	492.013687	-123.694419	51.158975	339.487562	-77.044522	-21.649985	350.614964	-107.048229	175.318552	137.324144	-126.672331	97.076815	165.502668	-54.858301	357.056446	1084.187626	-447.560732	438.912933	1050.824791	-450.037463	461.179236	1078.864710	-441.255379	493.531263	980.431367	-445.962325	615.436939	851.598791	-411.948742	605.120043	838.770723	-309.130062	502.107895	755.673316	-422.862088	453.578538	690.066498	-399.354990	365.113627	656.451949	-406.466833	444.148423	677.301747	-358.305733	249.824161	582.907603	-403.583529	166.474638	580.428953	-369.175734	410.790798	426.153914	-364.527325	328.461943	441.225263	-430.510635	-263.231008	969.956325	-238.516003	-83.379517	79.421093	-437.602672	-83.423317	79.575165	-39.935014	
753	3.7650	787.307701	1419.313908	-133.780701	772.015377	1432.920283	-454.151125	772.441944	1473.390446	-292.525130	720.996927	1328.829475	-298.986421	552.708193	1176.634290	15.920803	696.423588	940.155244	-64.058561	534.615396	1172.177676	-534.704075	694.039367	941.647742	-450.553760	185.292366	1274.948916	-255.046913	338.331873	1323.015940	-393.754141	378.271279	1270.767490	-120.068983	358.490357	1239.699115	-387.243007	379.709949	1214.403422	-138.454254	225.423757	1304.848498	-202.082855	223.906857	1323.413024	-308.420784	285.382170	1147.987541	-82.375438	272.562029	1176.934338	-444.380906	328.900904	996.555482	-84.372093	358.355616	914.097609	-92.671583	348.231645	829.498466	-86.248715	390.365391	918.722424	-109.827619	348.485057	689.784217	-106.767823	328.546332	674.157117	-207.342135	250.783653	587.236244	-74.277110	215.553543	506.922963	-85.770922	145.775932	453.809472	-79.455114	228.752536	497.285480	-123.980273	54.736285	348.664624	-76.861885	-17.488098	363.582723	-107.335852	166.441609	138.556725	-126.184461	90.155829	171.635100	-54.698341	355.170477	1085.030108	-446.944277	436.398171	1050.349803	-449.563750	459.021588	1078.113038	-440.947144	490.040937	979.205260	-445.119126	610.095605	849.351894	-412.211568	600.585602	836.084912	-307.286744	498.189525	751.689455	-422.822917	450.948646	684.777078	-399.439368	363.524007	649.158994	-406.014788	443.391257	672.599901	-358.135546	250.383439	572.637998	-403.018425	166.856720	566.783151	-368.784861	417.796942	423.203324	-364.959576	334.911625	434.797509	-430.896252	-263.156655	970.031643	-238.765590	-83.359905	79.399072	-437.623486	-83.401285	79.608288	-39.975793	
